<svg xmlns="http://www.w3.org/2000/svg" xmlns:xlink="http://www.w3.org/1999/xlink" id="Layer_1" x="0px" y="0px" viewBox="0 0 220 90" style="enable-background:new 0 0 220 90;" xml:space="preserve"><style type="text/css">	.st0{fill:#FFFFFF;}	.st1{fill:#D92428;}	.st2{fill:#EDC932;}</style><g>	<g>		<g>			<path class="st0" d="M116.6,87.2c-0.3,0.2-0.7,0.4-1.2,0.5c-0.5,0.1-1,0.2-1.5,0.2c-0.3,0-0.7,0-1.2,0c-0.5,0-1.1,0-1.9,0    l-0.1-0.1l1.2-8.6l0.1-0.1c0.5,0,1,0,1.6,0c0.5,0,1.1,0,1.7,0c0.7,0,1.3,0.1,1.8,0.3c0.5,0.2,0.8,0.5,1,0.9    c0.2,0.4,0.4,0.9,0.4,1.4c0,0.2,0,0.4,0,0.6c0,0.4,0,0.8-0.1,1.2c-0.1,0.8-0.3,1.6-0.6,2.2C117.6,86.3,117.2,86.8,116.6,87.2z     M114.3,86.3c1.1,0,1.8-0.9,2.1-2.8c0.1-0.4,0.1-0.7,0.1-1c0-1.2-0.5-1.9-1.4-1.9h-0.7c-0.2,0-0.4,0-0.5,0l-0.8,5.7    c0.2,0,0.3,0,0.6,0H114.3z"></path>			<path class="st0" d="M126.8,81.8c0,0.3-0.1,0.5-0.2,0.8c-0.1,0.2-0.3,0.5-0.4,0.7c-0.2,0.2-0.4,0.4-0.6,0.5    c-0.2,0.1-0.4,0.3-0.6,0.3c0.4,0.2,0.7,0.5,0.8,1.2l0.2,1.1c0.1,0.4,0.3,0.7,0.5,0.9c-0.2,0.2-0.4,0.3-0.6,0.4    c-0.3,0.1-0.6,0.2-0.9,0.2c-0.3,0-0.5-0.1-0.7-0.3c-0.1-0.2-0.3-0.5-0.4-0.9l-0.3-1.3c-0.1-0.3-0.2-0.4-0.3-0.6    c-0.1-0.1-0.4-0.2-0.7-0.2h-0.5l-0.5,3.2c-0.3,0.1-0.6,0.1-1,0.1c-0.4,0-0.7,0-1-0.1l1.2-8.6l0.1-0.1c0.8,0,1.4,0,1.9,0    c0.5,0,0.9,0,1.2,0c0.5,0,0.9,0.1,1.3,0.2c0.4,0.1,0.7,0.3,0.9,0.5c0.2,0.2,0.4,0.5,0.5,0.9c0.1,0.2,0.1,0.4,0.1,0.7    C126.8,81.4,126.8,81.6,126.8,81.8z M122.7,80.5l-0.4,2.5c0.4,0,0.7,0,1,0c0.3,0,0.5-0.1,0.7-0.2c0.2-0.1,0.3-0.2,0.4-0.4    c0.1-0.2,0.2-0.4,0.2-0.7c0-0.1,0-0.2,0-0.3c0-0.6-0.4-0.9-1.1-0.9h-0.5C122.9,80.5,122.8,80.5,122.7,80.5z"></path>			<path class="st0" d="M127.8,87.8l1.2-8.7c0.3-0.1,0.6-0.1,1-0.1c0.4,0,0.8,0,1,0.1l-1.2,8.7c-0.3,0.1-0.6,0.1-1.1,0.1    C128.4,87.8,128,87.8,127.8,87.8z"></path>			<path class="st0" d="M140.1,79L140.1,79l-1.2,8.7c-0.4,0.1-0.8,0.1-1.2,0.1c-0.5,0-0.9,0-1.2-0.1l-1.4-4.5    c-0.2-0.5-0.3-1.1-0.5-1.8l0,0c-0.1,1.2-0.2,2.5-0.4,3.8l-0.4,2.5c-0.3,0.1-0.6,0.1-1,0.1c-0.4,0-0.7,0-0.9-0.1l1.2-8.6    c0.3-0.1,0.7-0.1,1.2-0.1c0.5,0,0.9,0,1.2,0.1l1.4,4.5c0.2,0.8,0.4,1.5,0.5,1.9l0.1,0c0.1-1.2,0.2-2.4,0.4-3.7l0.2-1.6    c0.1-0.4,0.2-0.8,0.4-0.9c0.2-0.2,0.5-0.3,0.9-0.3H140.1z"></path>			<path class="st0" d="M147.9,87.2c-0.4,0.4-0.8,0.6-1.5,0.6c-0.4,0-0.6-0.1-0.8-0.3c-0.2-0.2-0.3-0.5-0.3-0.9l-0.3-1.5    c-0.1-0.4-0.2-0.7-0.3-0.8c-0.2-0.2-0.4-0.3-0.7-0.3c-0.1,0-0.3,0-0.6,0l-0.5,3.6c-0.3,0.1-0.6,0.1-1,0.1c-0.4,0-0.8,0-1-0.1    l1.2-8.6c0.3-0.1,0.6-0.1,1-0.1c0.4,0,0.8,0,1,0.1l-0.5,3.3l0.3,0c0.2,0,0.3,0,0.3-0.1c0.1-0.1,0.2-0.2,0.3-0.3l1.5-2.3    c0.2-0.3,0.3-0.4,0.5-0.6c0.2-0.1,0.4-0.2,0.7-0.2c0.3,0,0.7,0,1.2,0.1l0.1,0.1l-2,2.9c-0.3,0.4-0.5,0.7-0.9,0.9    c0.4,0.1,0.7,0.2,0.8,0.5c0.2,0.2,0.3,0.6,0.4,0.9l0.3,1.6c0,0.2,0.1,0.3,0.1,0.4c0,0.1,0.1,0.2,0.2,0.5    C147.7,87,147.8,87.1,147.9,87.2z"></path>			<path class="st0" d="M148.9,87.8l1.2-8.7c0.3-0.1,0.6-0.1,1-0.1c0.4,0,0.8,0,1,0.1l-1.2,8.7c-0.3,0.1-0.6,0.1-1.1,0.1    C149.5,87.8,149.2,87.8,148.9,87.8z"></path>			<path class="st0" d="M161.2,79L161.2,79l-1.2,8.7c-0.4,0.1-0.8,0.1-1.2,0.1c-0.5,0-0.9,0-1.2-0.1l-1.4-4.6    c-0.2-0.5-0.3-1.1-0.5-1.8l0,0c-0.1,1.2-0.2,2.5-0.4,3.8l-0.4,2.5c-0.3,0.1-0.6,0.1-1,0.1c-0.4,0-0.7,0-0.9-0.1l1.2-8.6    c0.3-0.1,0.7-0.1,1.2-0.1c0.5,0,0.9,0,1.2,0.1l1.4,4.5c0.2,0.8,0.4,1.5,0.5,1.9l0.1,0c0.1-1.2,0.2-2.4,0.4-3.7l0.2-1.6    c0.1-0.4,0.2-0.8,0.4-0.9c0.2-0.2,0.5-0.3,0.9-0.3H161.2z"></path>			<path class="st0" d="M166.2,82.8l2,0c0.8,0,1.2,0.3,1.2,1c0,0.1,0,0.2,0,0.3l-0.5,3.3c-1.2,0.3-2.3,0.5-3.6,0.5    c-0.6,0-1.2-0.1-1.6-0.3c-0.4-0.2-0.8-0.5-1.1-0.9c-0.3-0.4-0.4-0.8-0.5-1.4c0-0.2-0.1-0.5-0.1-0.8c0-0.3,0-0.7,0.1-1.1    c0.1-0.8,0.3-1.4,0.6-2c0.3-0.6,0.7-1,1.1-1.4c0.4-0.4,0.9-0.7,1.4-0.8c0.5-0.2,1.1-0.3,1.6-0.3c1.1,0,2.1,0.3,3,0.9    c0,0.1-0.1,0.3-0.2,0.4c-0.1,0.1-0.2,0.3-0.3,0.4c-0.1,0.1-0.2,0.2-0.3,0.3c-0.1,0.1-0.2,0.2-0.4,0.3c-0.6-0.4-1.3-0.7-2.1-0.7    c-1.4,0-2.2,0.9-2.5,2.8c0,0.3-0.1,0.6-0.1,0.8c0,1.3,0.6,2,1.8,2c0.2,0,0.4,0,0.6,0c0.2,0,0.4,0,0.6-0.1l0.1-0.8    c0-0.2,0.1-0.4,0.1-0.5c0-0.1,0.1-0.3,0.1-0.4h-0.6c-0.4,0-0.6-0.1-0.7-0.2c-0.1-0.1-0.1-0.2-0.1-0.4c0-0.1,0-0.1,0-0.2    C166,83.4,166.1,83.1,166.2,82.8z"></path>			<path class="st0" d="M174,86.9l-0.4-7.7c0.4-0.2,0.8-0.2,1.1-0.2c0.4,0,0.6,0.1,0.8,0.2c0.1,0.2,0.2,0.4,0.2,0.9l0.1,3.3    c0,0.7,0,1.2,0,1.6c0,0.2,0,0.4,0,0.5c0,0.2,0,0.4,0,0.5c0,0.1,0,0.1,0,0.1c0,0,0,0,0.1,0l2-6.8c0.3-0.1,0.8-0.1,1.3-0.1    s1,0,1.3,0.1l0,6.6c0,0.1,0,0.1,0,0.1c0,0,0,0,0.1,0c0.2-0.8,0.5-1.7,0.8-2.7l1.3-4.3c0.3-0.1,0.5-0.1,0.9-0.1c0.4,0,0.7,0,1,0.1    l0.1,0.1l-2.9,8.5c-0.6,0.1-1.1,0.1-1.6,0.1c-0.5,0-0.8-0.1-1-0.2c-0.2-0.1-0.3-0.4-0.3-0.7l0-2.7c0-0.2,0-0.4,0-0.6    c0-0.8,0-1.5,0.1-2.3h-0.1c-0.2,0.8-0.5,1.8-0.8,2.9l-1.1,3.6c-0.6,0.1-1.1,0.1-1.6,0.1c-0.5,0-0.8-0.1-1-0.2    C174.1,87.5,174,87.3,174,86.9z"></path>			<path class="st0" d="M187.2,85.9c-0.2,0-0.4,0-0.5,0l-0.8,1.8c-0.2,0.1-0.5,0.1-0.9,0.1c-0.4,0-0.7,0-1-0.1l-0.1-0.1l4.1-8.5    c0.3-0.1,0.7-0.1,1.2-0.1c0.5,0,0.9,0,1.2,0.1l1.6,8.5c-0.3,0.2-0.7,0.2-1,0.2c-0.4,0-0.8-0.1-0.9-0.2c-0.2-0.2-0.3-0.4-0.3-0.9    l-0.1-0.8c-0.1,0-0.3,0-0.5,0H187.2z M187.4,84.3l0.5,0h0.9c0,0,0.1,0,0.2,0c0.1,0,0.2,0,0.2,0l-0.1-0.8    c-0.1-0.7-0.2-1.6-0.3-2.6h-0.1c-0.1,0.4-0.4,1.2-1,2.4L187.4,84.3z"></path>			<path class="st0" d="M197.4,80.7l-0.1,1l-0.8,6c-0.3,0.1-0.6,0.1-1.1,0.1c-0.4,0-0.7,0-1-0.1l1-7.1l-0.8,0h-1.3    c0-0.1,0-0.1,0-0.2c0-0.2,0-0.4,0.1-0.7c0-0.3,0.1-0.6,0.2-0.9h6.4c0,0.1,0,0.2,0,0.3c0,0.1,0,0.3,0,0.5c0,0.3-0.2,0.5-0.4,0.7    c-0.2,0.1-0.5,0.2-0.9,0.2h-0.4L197.4,80.7L197.4,80.7z"></path>			<path class="st0" d="M202,85.2l-0.1,0.9v0c0.4,0,0.7,0,1,0h3c0,0.3-0.1,0.6-0.1,0.7c-0.2,0.7-0.7,1-1.5,1h-3.4    c-0.4,0-0.6-0.1-0.8-0.3c-0.1-0.2-0.2-0.4-0.2-0.6c0-0.1,0-0.2,0-0.2l1.1-7.6l0.1-0.1h5.6c0,0.1,0,0.1,0,0.2c0,0.2,0,0.4,0,0.6    c0,0.3-0.1,0.6-0.3,0.9h-3.5l-0.1,0.9l-0.1,0.9c0.2,0,0.5,0,0.9,0h2c0,0.1,0,0.2,0,0.4c0,0.1,0,0.3,0,0.4c0,0.3-0.1,0.6-0.2,0.8    h-2.9L202,85.2z"></path>			<path class="st0" d="M214.2,81.7c0,0.3-0.1,0.5-0.2,0.8c-0.1,0.2-0.3,0.5-0.4,0.7c-0.2,0.2-0.4,0.4-0.6,0.5    c-0.2,0.1-0.4,0.3-0.6,0.3c0.4,0.2,0.7,0.5,0.8,1.2l0.2,1.1c0.1,0.4,0.3,0.7,0.5,0.9c-0.2,0.2-0.4,0.3-0.6,0.4    c-0.3,0.1-0.6,0.2-0.9,0.2c-0.3,0-0.5-0.1-0.7-0.3c-0.1-0.2-0.3-0.5-0.4-0.9l-0.3-1.3c-0.1-0.3-0.2-0.4-0.3-0.6    c-0.1-0.1-0.4-0.2-0.7-0.2h-0.5l-0.5,3.2c-0.3,0.1-0.6,0.1-1,0.1c-0.4,0-0.7,0-1-0.1l1.2-8.6l0.1-0.1c0.8,0,1.4,0,1.9,0    c0.5,0,0.9,0,1.2,0c0.5,0,0.9,0.1,1.3,0.2c0.4,0.1,0.7,0.3,0.9,0.5c0.2,0.2,0.4,0.5,0.5,0.9c0.1,0.2,0.1,0.4,0.1,0.7    C214.2,81.4,214.2,81.6,214.2,81.7z M210.1,80.5l-0.4,2.5c0.4,0,0.7,0,1,0c0.3,0,0.5-0.1,0.7-0.2c0.2-0.1,0.3-0.2,0.4-0.4    c0.1-0.2,0.2-0.4,0.2-0.7c0-0.1,0-0.2,0-0.3c0-0.6-0.4-1-1.1-1h-0.5C210.3,80.6,210.2,80.6,210.1,80.5z"></path>		</g>		<path class="st0" d="M26.3,43.1l0.6-4.7l1.6-12.2c1.3-0.3,2.9-0.4,4.9-0.4c2,0,3.6,0.1,4.7,0.4l-5.8,43.6c-1.3,0.3-3,0.4-4.9,0.4   c-2,0-3.6-0.1-4.8-0.4l1.8-13.5l0.7-4.7l-3,0.1h-7l-3-0.1l-0.6,4.7L9.7,69.8c-1.3,0.3-2.9,0.4-4.9,0.4c-2,0-3.6-0.1-4.8-0.4   l5.8-43.6c1.3-0.3,2.9-0.4,4.9-0.4c2,0,3.6,0.1,4.8,0.4l-1.6,12.2l-0.7,4.7l3.1-0.1h7L26.3,43.1z"></path>		<path class="st0" d="M41.7,69.8l5.8-43.6c1.3-0.3,2.9-0.4,4.9-0.4c2,0,3.6,0.1,4.9,0.4l-5.8,43.6c-1.3,0.3-3,0.4-5,0.4   C44.5,70.1,42.9,70,41.7,69.8z"></path>		<path class="st0" d="M78.7,56.8H61c0-0.4-0.1-0.7-0.1-1.1c0-0.8,0.1-1.8,0.2-2.8c0.2-1.6,0.5-2.9,0.9-3.9h17.7c0,0.3,0,0.6,0,1   c0,0.9-0.1,1.8-0.2,2.9C79.4,54.4,79.1,55.7,78.7,56.8z"></path>		<path class="st0" d="M99,40.1l-0.6,4.5L95,69.8c-1.4,0.3-3,0.4-4.9,0.4c-1.9,0-3.5-0.1-4.8-0.4l4-29.3C92.5,40,95.8,39.8,99,40.1z   "></path>		<path class="st0" d="M121.4,56.7l-0.7,4.7v0.1c1.9-0.1,3.4-0.1,4.5-0.1h14.1c-0.2,1.6-0.4,2.8-0.7,3.7c-0.9,3.3-3.2,5-6.8,5h-16.1   c-1.8,0-3-0.5-3.9-1.6c-0.7-0.8-1-1.9-1-3.2c0-0.4,0-0.8,0.1-1.2l5-37.8l0.5-0.4h26.1c0,0.3,0,0.7,0,1.1c0,0.9-0.1,1.9-0.2,3   c-0.2,1.5-0.7,3-1.5,4.6h-16.5l-0.6,4.6l-0.6,4.5c1,0,2.4-0.1,4.1-0.1h9.3c0.1,0.6,0.2,1.2,0.2,1.9c0,0.7-0.1,1.4-0.2,2.2   c-0.2,1.5-0.6,3-1.1,4.2h-13.4L121.4,56.7z"></path>		<path class="st0" d="M170,43.7l0.1-0.7c0.1-1,0.2-1.9,0.2-2.7c0-4.4-1.9-6.5-5.6-6.5c-2.6,0-4.6,1.2-6,3.6   c-1.5,2.4-2.5,5.9-3.1,10.5c-0.2,1.7-0.3,3.2-0.3,4.6c0,2.4,0.4,4.3,1.1,5.7c1.1,2.3,3,3.4,5.7,3.4c1.4,0,3-0.3,4.8-1   c1.8-0.7,3.8-1.8,6-3.3c0.9,0.7,1.7,1.7,2.4,2.9c0.7,1.2,1.1,2.4,1.1,3.5c-1,0.9-2.2,1.8-3.6,2.6c-1.4,0.8-2.8,1.5-4.3,2.1   c-1.5,0.6-3.1,1.1-4.7,1.4c-1.6,0.4-3.2,0.5-4.8,0.5c-3.1,0-5.7-0.6-7.6-1.8c-2-1.2-3.5-2.9-4.5-4.9c-1-2-1.7-4.4-1.9-7   c-0.1-1-0.1-2-0.1-2.9c0-1.7,0.1-3.5,0.4-5.3c0.5-3.7,1.4-7,2.7-9.8c1.3-2.8,2.9-5.1,4.7-7c1.8-1.9,3.8-3.3,6.1-4.2   c2.2-0.9,4.5-1.4,6.9-1.4c2.4,0,4.6,0.3,6.5,1c1.9,0.7,3.5,1.6,4.7,2.7c1.2,1.2,2.1,2.5,2.7,4.1c0.4,1.1,0.6,2.2,0.6,3.4   c0,0.6,0,1.1-0.1,1.7c-0.5,3.7-2.6,5.5-6.3,5.5C172.6,44.2,171.3,44,170,43.7z"></path>		<path class="st0" d="M208.1,43.1l0.6-4.7l1.6-12.2c1.3-0.3,2.9-0.4,4.9-0.4c2,0,3.6,0.1,4.7,0.4l-5.8,43.6c-1.3,0.3-3,0.4-4.9,0.4   c-2,0-3.6-0.1-4.8-0.4l1.8-13.5l0.7-4.7l-3,0.1h-7l-3-0.1l-0.6,4.7l-1.8,13.5c-1.3,0.3-2.9,0.4-4.9,0.4c-2,0-3.6-0.1-4.8-0.4   l5.8-43.6c1.3-0.3,2.9-0.4,4.9-0.4c2,0,3.6,0.1,4.8,0.4l-1.6,12.2l-0.7,4.7l3.1-0.1h7L208.1,43.1z"></path>	</g>	<path class="st1" d="M118.6,9.4c0,3.6-3.2,6.6-6.8,7.2l-0.3,0.1C91.3,19,73.7,29.4,62.1,44.4c8-20,25.2-35.6,46.6-41.9  c0.1,0,0,0,0,0c0.6-0.2,1.7-0.4,2.4-0.4C115.2,2.2,118.6,5.4,118.6,9.4z"></path>	<path class="st2" d="M110.6,32.5c-0.7,2.4-3.4,3.8-5.6,3.4c-1.9-0.4-3.8-0.7-5.7-0.8c-3.2-0.2-6.3-0.1-9.4,0.5  c-7.1,1.2-13.8,4.2-19.5,8.8c2.8-3.9,6.1-7.3,9.8-10.1c5.1-3.9,10.9-6.6,17.1-7.8c2.8-0.6,5.7-0.9,8.7-0.8c0.6,0,1.2,0.1,1.6,0.2  c0.4,0.1,0.8,0.4,1.1,0.6c0.7,0.5,1.3,1.3,1.7,2.2v0C110.8,29.9,110.9,31.2,110.6,32.5z"></path></g></svg>